<svg xmlns="http://www.w3.org/2000/svg" width="180" height="180" viewBox="0 0 180 180">
  <g fill="none" fill-rule="evenodd" stroke="#FFF">
    <circle cx="90" cy="90" r="89" stroke-width="2"/>
    <g stroke-width="3.75" transform="translate(47 46)">
      <path d="M41.4265625 57.3366875L28.1684375 44.0785625C26.7040625 42.6123125 26.8109375 40.1316875 28.2753125 38.6673125L30.8196875 36.1248125M52.0330625 46.7294375L34.7980625 29.4944375C33.3318125 28.0281875 31.0124375 27.9756875 29.5480625 29.4400625L29.5218125 29.4663125C28.0555625 30.9306875 28.0293125 33.3325625 29.4936875 34.7969375L46.7286875 52.0319375M58.6623125 79.875125L54.6798125 75.8945C52.3454375 73.55825 47.0748125 73.592 44.0748125 70.590125L28.1673125 54.6845C26.7048125 53.220125 26.8116875 50.737625 28.2760625 49.27325L30.8185625 46.728875"/>
      <path d="M58.6623125,42.752375 L44.0785625,28.168625 C42.6141875,26.702375 40.3473125,26.5955 38.8829375,28.059875 L36.1229375,30.819875"/>
      <path d="M78.5495,59.9879375 L74.568875,56.0073125 C72.3095,53.7479375 71.606375,51.2148125 71.051375,48.2785625 C70.260125,44.0748125 68.27075,41.7535625 66.61325,40.0979375 C64.95575,38.4404375 63.19325,36.6741875 59.988875,33.4698125 C57.9995,31.4823125 56.010125,32.1441875 54.6845,33.4698125 L52.03325,36.1229375"/>
      <polyline points="63.965 87.831 57.337 81.201 79.875 58.662 86.505 65.292"/>
      <path d="M8.280875 29.4936875L12.2615 33.4743125C14.59775 35.8105625 14.564 41.0811875 17.565875 44.0811875L22.864625 49.3799375M28.1680625 9.6065L32.1505625 13.587125C34.4080625 15.8465 36.9393125 16.549625 39.8774375 17.10275 44.0811875 17.895875 46.4024375 19.88525 48.0599375 21.54275 49.7174375 23.20025 51.4818125 24.96275 54.6843125 28.167125"/>
      <polyline points=".326 24.191 6.956 30.819 29.493 8.281 22.865 1.651"/>
      <path d="M28.1680625 78.5495L32.1468125 74.572625C33.7649375 72.952625 36.7968125 72.47075 39.5043125 71.325125M8.280875 58.6623125L12.25775 54.6854375C14.3765 52.5648125 15.13025 50.2023125 15.672125 47.4929375"/>
      <polyline points="22.865 86.503 29.493 79.875 6.956 57.336 .326 63.964"/>
      <path d="M78.5495 28.167875L74.572625 32.14475C72.952625 33.76475 72.47075 36.7985 71.325125 39.506M58.6623125 8.280875L54.6835625 12.25775C52.5629375 14.38025 50.1948125 15.132125 47.4816875 15.674"/>
      <polyline points="86.505 22.865 79.875 29.493 57.337 6.956 63.965 .326"/>
    </g>
  </g>
</svg>