<svg xmlns="http://www.w3.org/2000/svg" width="180" height="180" viewBox="0 0 180 180">
  <g fill="none" fill-rule="evenodd" stroke="#FFF">
    <circle cx="90" cy="90" r="89" stroke-width="2"/>
    <g stroke-width="3.83" transform="translate(56 41)">
      <path d="M22.9787234 90L22.9787234 86.1702128C22.9787234 83.987234 29.3074468 80.4255319 34.4719149 80.4255319L34.4642553 80.4255319C39.6287234 80.4255319 45.9574468 83.987234 45.9574468 86.1702128L45.9574468 90M34.4680851 80.4255319C39.0734043 80.4255319 42.1276596 76.752766 42.1276596 72.2202128L42.1276596 69.4838298C42.1276596 64.9493617 39.0734043 61.2765957 34.4680851 61.2765957 29.862766 61.2765957 26.8085106 64.9493617 26.8085106 69.4838298L26.8085106 72.2202128C26.8085106 76.752766 29.862766 80.4255319 34.4680851 80.4255319zM45.9574468 86.1702128C45.9574468 83.987234 52.2861702 80.4255319 57.4506383 80.4255319L57.4429787 80.4255319C62.6074468 80.4255319 68.9361702 83.987234 68.9361702 86.1702128L68.9361702 90M57.4468085 80.4255319C62.0521277 80.4255319 65.106383 76.752766 65.106383 72.2202128L65.106383 69.4838298C65.106383 64.9493617 62.0521277 61.2765957 57.4468085 61.2765957 52.8414894 61.2765957 49.787234 64.9493617 49.787234 69.4838298L49.787234 72.2202128C49.787234 76.752766 52.8414894 80.4255319 57.4468085 80.4255319zM0 90L0 86.1702128C0 83.987234 6.3287234 80.4255319 11.4931915 80.4255319L11.4855319 80.4255319C16.65 80.4255319 22.9787234 83.987234 22.9787234 86.1702128M11.4893617 80.4255319C16.0946809 80.4255319 19.1489362 76.752766 19.1489362 72.2202128L19.1489362 69.4838298C19.1489362 64.9493617 16.0946809 61.2765957 11.4893617 61.2765957 6.88404255 61.2765957 3.82978723 64.9493617 3.82978723 69.4838298L3.82978723 72.2202128C3.82978723 76.752766 6.88404255 80.4255319 11.4893617 80.4255319z"/>
      <line x1="34.468" x2="34.468" y1="11.489"/>
      <line x1="49.374" x2="59.324" y1="20.106" y2="14.362"/>
      <line x1="49.393" x2="59.342" y1="37.34" y2="43.085"/>
      <line x1="23.414" x2="25.85" y1="9.578" y2="13.799"/>
      <line x1="57.447" x2="51.702" y1="28.723" y2="28.723"/>
      <line x1="45.524" x2="43.086" y1="9.574" y2="13.798"/>
      <line x1="18.605" x2="8.655" y1="20.106" y2="14.362"/>
      <line x1="18.586" x2="8.636" y1="37.34" y2="43.085"/>
      <line x1="11.489" x2="17.234" y1="28.723" y2="28.723"/>
      <polyline points="28.723 44.043 28.723 49.787 32.553 53.617 36.383 53.617 40.213 49.787 40.213 44.043"/>
      <path d="M40.212766,44.0435106 L40.212766,42.128617 C40.212766,40.0528723 40.9251064,38.5132979 42.3651064,37.0445745 C44.5365957,34.8290426 45.9459574,32.0907447 45.9459574,28.718617 C45.9459574,22.3764894 40.806383,17.235 34.4623404,17.235 C28.1221277,17.235 22.9787234,22.3764894 22.9787234,28.718617 C22.9787234,32.0907447 24.39,34.8290426 26.5595745,37.0445745 C27.9995745,38.5132979 28.7234043,40.0528723 28.7234043,42.128617 L28.7234043,44.0435106 L40.212766,44.0435106 Z"/>
    </g>
  </g>
</svg>