<svg xmlns="http://www.w3.org/2000/svg" width="180" height="180" viewBox="0 0 180 180">
  <g fill="none" fill-rule="evenodd" stroke="#FFF">
    <circle cx="90" cy="90" r="89" stroke-width="2"/>
    <g stroke-width="3.83" transform="translate(53 47)">
      <path d="M36.3829787 76.5957447C39.8374468 76.5957447 42.1276596 73.656383 42.1276596 70.0295745L42.1276596 67.842766C42.1276596 64.2159574 39.8374468 61.2765957 36.3829787 61.2765957 32.9285106 61.2765957 30.6382979 64.2159574 30.6382979 67.842766L30.6382979 70.0295745C30.6382979 73.656383 32.9285106 76.5957447 36.3829787 76.5957447zM15.3191489 80.4255319C18.773617 80.4255319 21.0638298 77.4861702 21.0638298 73.8593617L21.0638298 71.6725532C21.0638298 68.0457447 18.773617 65.106383 15.3191489 65.106383 11.8646809 65.106383 9.57446809 68.0457447 9.57446809 71.6725532L9.57446809 73.8593617C9.57446809 77.4861702 11.8646809 80.4255319 15.3191489 80.4255319zM47.8723404 90L47.8723404 82.3404255C47.8723404 77.5953191 40.373617 76.5957447 36.3829787 76.5957447 32.3923404 76.5957447 24.893617 77.5953191 24.893617 82.3404255L24.893617 90"/>
      <path d="M24.8945745 82.6975532C22.401383 80.8918085 18.0430851 80.4245745 15.3201064 80.4245745 11.3294681 80.4245745 3.83074468 81.4260638 3.83074468 86.1692553L3.83074468 89.9990426M57.4468085 80.4255319C53.9923404 80.4255319 51.7021277 77.4861702 51.7021277 73.8593617L51.7021277 71.6725532C51.7021277 68.0457447 53.9923404 65.106383 57.4468085 65.106383 60.9012766 65.106383 63.1914894 68.0457447 63.1914894 71.6725532L63.1914894 73.8593617C63.1914894 77.4861702 60.9012766 80.4255319 57.4468085 80.4255319z"/>
      <path d="M47.8723404 82.6975532C50.3655319 80.8918085 54.7238298 80.4245745 57.4468085 80.4245745 61.4393617 80.4245745 68.9361702 81.4260638 68.9361702 86.1692553L68.9361702 89.9990426M5.74468085 0L49.787234 0C52.9602128 0 55.5319149 2.57170213 55.5319149 5.74468085L55.5319149 32.5531915C55.5319149 35.7261702 52.9602128 38.2978723 49.787234 38.2978723L24.893617 38.2978723 16.8510638 49.0212766C15.7480851 50.4938298 13.4042553 49.7125532 13.4042553 47.8723404L13.4042553 38.2978723 5.74468085 38.2978723C2.57170213 38.2978723 0 35.7261702 0 32.5531915L0 5.74468085C0 2.57170213 2.57170213 0 5.74468085 0z"/>
      <path d="M32.5531915,42.1276596 L32.5531915,44.0425532 C32.5531915,47.2155319 35.1248936,49.787234 38.2978723,49.787234 L53.6170213,49.787234 L61.7361702,59.2602128 C62.8946809,60.6102128 65.106383,59.7944681 65.106383,58.0155319 L65.106383,49.787234 L70.8510638,49.787234 C74.0240426,49.787234 76.5957447,47.2155319 76.5957447,44.0425532 L76.5957447,17.2340426 C76.5957447,14.0610638 74.0240426,11.4893617 70.8510638,11.4893617 L59.3617021,11.4893617"/>
    </g>
  </g>
</svg>