<svg xmlns="http://www.w3.org/2000/svg" width="180" height="180" viewBox="0 0 180 180">
  <g fill="none" fill-rule="evenodd" stroke="#FFF">
    <circle cx="90" cy="90" r="89" stroke-width="2"/>
    <path stroke-width="4.091" d="M34.7727273 32.7272727C33.6436364 32.7272727 32.7272727 31.8109091 32.7272727 30.6818182L32.7272727 26.5909091C32.7272727 24.2590909 39.4875 20.4545455 45.0040909 20.4545455L44.9959091 20.4545455C50.5125 20.4545455 57.2727273 24.2590909 57.2727273 26.5909091L57.2727273 30.6818182C57.2727273 31.8109091 56.3563636 32.7272727 55.2272727 32.7272727L34.7727273 32.7272727zM45 20.4545455C49.9193182 20.4545455 53.1818182 16.5313636 53.1818182 11.6897727L53.1818182 8.76681818C53.1818182 3.92318182 49.9193182 0 45 0 40.0806818 0 36.8181818 3.92318182 36.8181818 8.76681818L36.8181818 11.6897727C36.8181818 16.5313636 40.0806818 20.4545455 45 20.4545455zM34.7727273 85.9090909C33.6436364 85.9090909 32.7272727 84.9927273 32.7272727 83.8636364L32.7272727 79.7727273C32.7272727 77.4409091 39.4875 73.6363636 45.0040909 73.6363636L44.9959091 73.6363636C50.5125 73.6363636 57.2727273 77.4409091 57.2727273 79.7727273L57.2727273 83.8636364C57.2727273 84.9927273 56.3563636 85.9090909 55.2272727 85.9090909L34.7727273 85.9090909zM45 73.6363636C49.9193182 73.6363636 53.1818182 69.7131818 53.1818182 64.8715909L53.1818182 61.9486364C53.1818182 57.105 49.9193182 53.1818182 45 53.1818182 40.0806818 53.1818182 36.8181818 57.105 36.8181818 61.9486364L36.8181818 64.8715909C36.8181818 69.7131818 40.0806818 73.6363636 45 73.6363636zM2.04545455 61.3636364C.916363636 61.3636364 0 60.4472727 0 59.3181818L0 55.2272727C0 52.8954545 6.76022727 49.0909091 12.2768182 49.0909091L12.2686364 49.0909091C17.7852273 49.0909091 24.5454545 52.8954545 24.5454545 55.2272727L24.5454545 59.3181818C24.5454545 60.4472727 23.6290909 61.3636364 22.5 61.3636364L2.04545455 61.3636364zM12.2727273 49.0909091C17.1920455 49.0909091 20.4545455 45.1677273 20.4545455 40.3261364L20.4545455 37.4031818C20.4545455 32.5595455 17.1920455 28.6363636 12.2727273 28.6363636 7.35340909 28.6363636 4.09090909 32.5595455 4.09090909 37.4031818L4.09090909 40.3261364C4.09090909 45.1677273 7.35340909 49.0909091 12.2727273 49.0909091zM67.5 61.3636364C66.3709091 61.3636364 65.4545455 60.4472727 65.4545455 59.3181818L65.4545455 55.2272727C65.4545455 52.8954545 72.2147727 49.0909091 77.7313636 49.0909091L77.7231818 49.0909091C83.2397727 49.0909091 90 52.8954545 90 55.2272727L90 59.3181818C90 60.4472727 89.0836364 61.3636364 87.9545455 61.3636364L67.5 61.3636364zM77.7272727 49.0909091C82.6465909 49.0909091 85.9090909 45.1677273 85.9090909 40.3261364L85.9090909 37.4031818C85.9090909 32.5595455 82.6465909 28.6363636 77.7272727 28.6363636 72.8079545 28.6363636 69.5454545 32.5595455 69.5454545 37.4031818L69.5454545 40.3261364C69.5454545 45.1677273 72.8079545 49.0909091 77.7272727 49.0909091zM13.3083409 22.5C17.6283409 16.425 23.6522045 11.6468182 30.6803864 8.85886364M26.5909091 79.2353864C21.3115909 76.3901591 16.7645455 72.3606136 13.3077273 67.5006136M76.6906364 22.5C72.3706364 16.425 66.3467727 11.6468182 59.3185909 8.85886364M63.4080682 79.2353864C68.6873864 76.3901591 73.2344318 72.3606136 76.69125 67.5006136" transform="translate(45 46)"/>
  </g>
</svg>